<svg width="1366" height="110" viewBox="0 0 1366 110" fill="none" xmlns="http://www.w3.org/2000/svg">
<g filter="url(#filter0_d_50_1082)">
<path d="M1660.99 49.0626L1682 50.5626L1682 63.0614L1660.99 62.5614C1655.49 54.5614 1640.98 52.5614 1635.98 52.5614C1630.97 52.5614 1625.47 58.5614 1623.97 59.5614C1622.47 60.5614 1603.46 60.5614 1595.96 59.5614C1588.45 58.5614 1585.95 52.0614 1584.95 52.0614C1583.95 52.0614 1569.44 54.0626 1566.44 54.5626C1564.04 54.9626 1557.44 52.3959 1554.43 51.0626C1552.03 43.4626 1545.76 44.2292 1542.93 45.5626C1524.92 49.0626 1521.42 44.0626 1514.41 35.0626C1507.41 26.0626 1503.41 27.5626 1502.91 27.5626C1495.7 31.9626 1484.9 35.3959 1480.39 36.5626C1467.39 38.0626 1467.39 20.5626 1454.88 19.0626C1451.11 18.6104 1444.71 24.8959 1441.87 28.5626C1441.37 25.0626 1428.87 13.5626 1422.36 17.5626C1417.16 20.7626 1406.86 25.8959 1402.35 28.0626C1399.85 20.0626 1391.85 15.0626 1387.85 15.0626C1383.84 15.0626 1374.84 23.5625 1374.84 26.5625C1374.84 29.5625 1367.84 37.5626 1367.84 36.0626C1367.84 34.8626 1362.83 33.5626 1360.33 33.0626C1360.33 32.5626 1358.73 32.1626 1352.33 34.5626C1346.33 35.5626 1332.32 23.5625 1328.32 23.5625C1325.11 23.5625 1321.98 25.5625 1320.81 26.5625C1315.61 17.7625 1311.31 19.2292 1309.81 21.0625C1309.14 22.2292 1305.9 25.2625 1298.3 28.0625C1288.8 31.5625 1290.3 19.0625 1287.79 21.0625C1285.29 23.0625 1273.79 28.5625 1264.78 31.5625C1255.78 34.5625 1249.27 28.0625 1237.27 26.5625C1225.26 25.0625 1211.25 35.0625 1202.25 37.5625C1193.25 40.0625 1175.24 33.0625 1164.23 31.5625C1153.22 30.0625 1148.22 34.0625 1147.22 33.0625C1146.42 32.2625 1140.88 27.7292 1138.22 25.5625C1149.02 17.5625 1186.41 22.2292 1203.75 25.5625C1212.96 19.5625 1236.27 17.0625 1246.77 16.5625C1260.38 25.7625 1279.79 16.3959 1287.79 10.5625C1292.2 20.5625 1301.97 15.7292 1306.3 12.0625C1315.11 5.26254 1318.98 12.2292 1319.81 16.5625C1324.21 10.9625 1328.32 12.2292 1329.82 13.5625C1346.83 22.0625 1352.83 25.5625 1355.83 23.5625C1358.83 21.5625 1361.33 22.0625 1362.83 22.0625C1364.03 22.0625 1366.67 24.3959 1367.84 25.5625C1368.67 25.7292 1370.54 25.2625 1371.34 22.0625C1372.14 18.8626 1378.68 10.7292 1381.84 7.06255C1389.85 0.262548 1398.85 11.8959 1402.35 18.5626L1411.36 13.5626C1421.36 7.16255 1426.53 6.56255 1427.87 7.06255C1432.27 6.66255 1439.37 14.5626 1442.38 18.5626C1448.88 10.0626 1460.88 3.56256 1468.39 18.5626C1475.89 33.5626 1495.9 18.5626 1497.9 18.5626C1505.11 13.7626 1508.58 16.5626 1509.41 18.5626C1525.42 34.9626 1533.76 36.0626 1535.92 34.5626C1553.13 30.5626 1555.43 36.2292 1554.43 39.5626L1567.44 42.0626C1569.84 40.8626 1580.11 39.8959 1584.95 39.5626C1593.35 50.7626 1614.8 48.5626 1624.47 46.0626C1638.48 33.6626 1654.65 42.8959 1660.99 49.0626Z" fill="white"/>
<path d="M1160.73 62.5614C1161.23 61.5614 1155.23 54.0614 1155.23 53.5614C1141.22 61.5617 1124.38 63.5613 1117.71 63.561C1101.3 73.561 1089.19 67.7276 1085.19 63.561C1069.18 71.561 1067.68 58.561 1042.67 60.061C1022.66 54.861 1006.31 58.2276 1000.65 60.561C993.441 52.0165 980.968 53.0008 975.632 54.561C943.215 70.961 931.442 67.0606 929.608 63.0604C919.603 68.0599 910.598 51.061 904.095 49.061C897.591 47.061 894.59 56.061 894.09 56.061C893.589 56.061 887.086 53.561 877.081 51.561C869.077 49.961 850.734 53.8943 842.563 56.061C831.757 52.461 800.374 54.561 786.033 56.061C774.527 52.061 782.531 51.061 754.517 57.561C726.502 64.061 732.505 55.561 722.5 59.061C714.496 61.8609 699.155 60.8943 692.485 60.0609C690.65 61.3943 686.181 64.1609 682.98 64.5609C679.778 64.9609 676.977 63.7276 675.976 63.0609C675.976 65.0609 671.64 68.2276 669.473 69.5609C643.959 74.0609 621.948 66.0609 620.947 66.0609C619.947 66.0609 620.947 64.5609 613.443 68.0609C605.939 71.5609 601.437 63.0609 600.937 63.0609C585.929 70.5609 581.927 61.0609 578.925 58.5609C575.924 56.0609 561.416 53.0609 554.913 50.0609C548.409 47.0609 538.905 36.5609 533.402 34.5609C528.999 32.9609 505.887 34.2276 494.882 35.0609C490.379 29.5609 460.364 32.0609 454.861 33.5609C449.358 35.0609 443.355 30.0609 441.854 31.5609C440.353 33.0609 418.842 32.0609 395.83 39.0609C377.42 44.6609 352.808 41.3943 342.802 39.0609C328.795 23.0609 312.787 35.5609 307.284 40.0609C302.882 43.6609 297.445 43.2276 295.278 42.5609C292.443 41.3942 286.273 39.0609 284.272 39.0609C281.771 39.0609 272.266 30.5609 269.264 30.0609C266.863 29.6609 264.595 30.8942 263.761 31.5609C257.258 22.5609 253.256 22.0609 243.251 17.5609C235.246 13.9609 215.236 25.3942 206.231 31.5609C197.227 26.5609 187.221 31.0609 178.217 32.5609C171.013 33.7609 166.544 33.0609 165.21 32.5609C158.04 35.7276 139.096 40.8609 120.687 36.0609C102.277 31.2609 87.6696 37.0609 82.6669 40.5609C65.1578 40.5609 45.6476 53.5609 40.1447 55.5609C34.6418 57.5609 21.635 56.5609 21.635 55.5609C21.635 54.5609 16.1323 45.0609 15.1317 45.0609C14.3313 45.0609 13.1307 46.3942 12.6304 47.0609C4.62622 43.8609 -17.7187 40.0609 -27.8907 38.5609L-77.4165 38.0609C-87.0215 42.0609 -104.097 36.3942 -111.434 33.0609L-117.938 33.0609L-117.938 34.5609C-105.431 51.0609 -154.457 39.0609 -156.958 39.0609C-158.959 39.0609 -163.795 43.3942 -165.963 45.5609L-163.962 46.5609C-162.961 47.0609 -161.46 55.0609 -160.46 53.5609C-159.659 52.3609 -156.124 52.0609 -154.457 52.0609C-111.434 61.0609 -116.437 53.5609 -116.437 51.0609C-116.437 48.5609 -117.937 45.0609 -115.436 44.5609C-113.435 44.1609 -96.2596 49.0609 -87.922 51.5609C-84.9204 50.5609 -78.0167 49.0609 -74.4149 51.0609C-69.9126 53.5609 -28.8912 49.0609 -26.8903 51.0609C-24.8892 53.0609 -0.37634 55.5609 5.62671 57.0609C10.4292 58.2609 12.6304 59.8942 13.1306 60.5609C13.2974 59.8942 13.9312 58.4609 15.1317 58.0609C16.6326 57.5609 19.1338 65.0609 21.635 69.5609C23.6361 73.1609 35.1421 71.0609 40.6449 69.5609C48.6492 61.5609 81.1661 53.0609 83.6674 52.0609C86.1687 51.0609 91.1713 44.5609 100.176 46.5609C109.181 48.5609 138.696 49.0609 141.698 49.5609C144.699 50.0609 160.708 45.0609 166.711 43.5609C172.714 42.0609 168.212 43.0609 175.715 45.0609C183.219 47.0609 188.222 41.0609 193.725 40.5609C198.127 40.1609 203.897 42.3942 206.231 43.5609C221.239 31.5609 226.242 33.0609 237.247 28.0609C248.253 23.0609 263.761 44.5609 263.761 44.0609C263.761 43.5609 269.264 42.0609 272.266 42.5609C275.267 43.0609 283.271 50.5609 284.272 51.0609C285.272 51.5609 285.272 51.0609 291.776 54.5609C296.979 57.3609 301.614 55.7276 303.282 54.5609C306.95 51.3942 316.188 44.5609 323.792 42.5609C333.297 40.0609 339.801 48.5609 342.802 51.0609C345.804 53.5609 361.312 53.0609 362.313 53.0609C373.919 56.6609 385.158 54.5609 389.327 53.0609C402.533 49.0609 431.515 45.0609 444.355 43.5609C446.857 48.5609 475.371 40.5609 486.377 43.5609C495.182 45.9609 498.383 47.2276 498.884 47.5609C513.891 44.0609 529.4 46.0609 534.402 47.5609C539.405 49.0609 549.91 65.0609 554.913 64.0609C558.915 63.2609 573.589 70.3939 580.426 74.0604C588.43 87.0599 595.434 79.5609 596.435 80.0609C597.435 80.5609 600.437 76.5609 601.437 78.5609C602.438 80.5609 607.44 83.5609 611.442 82.5609C615.444 81.5609 619.947 81.5604 620.947 81.5604C628.451 86.5604 653.464 84.5604 659.467 84.5604L668.972 84.5604C672.574 84.5604 675.142 79.8937 675.976 77.5604C678.777 82.7604 687.482 77.3938 691.484 74.0604C696.687 77.2604 705.658 75.3938 709.493 74.0604C713.662 73.0604 723.801 71.6604 731.005 74.0604C740.009 77.0604 751.015 72.5604 754.517 71.0604C758.019 69.5604 773.026 66.5604 780.03 67.0604C787.034 67.5604 785.033 71.5604 787.534 70.0604C790.035 68.5604 829.556 68.5604 836.059 70.0604C841.262 71.2604 849.233 69.5604 852.568 68.5604C871.778 62.1604 888.587 66.8938 894.59 70.0604C896.191 65.6604 899.926 63.5604 901.593 63.0604C906.596 60.0604 916.601 72.5604 920.103 76.5604C923.605 80.5604 925.606 79.0604 926.607 78.0604C927.407 77.2604 929.942 77.7271 931.109 78.0604C940.614 86.0604 965.127 74.0604 976.633 68.0604C988.139 62.0604 999.144 74.0604 1000.65 74.0604C1002.15 74.0604 1012.65 69.5604 1016.15 70.0604C1018.95 70.4604 1035 72.8938 1042.67 74.0604C1044.33 72.7271 1050.87 71.4604 1063.68 77.0605C1076.48 82.6605 1082.69 79.7277 1084.19 77.5614C1090.59 83.9622 1097.2 84.561 1099.7 84.0604C1104.7 86.0604 1117.21 77.5614 1118.71 77.5614C1130.71 80.5614 1160.23 63.5614 1160.73 62.5614Z" fill="white"/>
<path d="M-165.963 58.5609C-166.963 57.0609 -164.962 57.0609 -164.462 56.5609L-181.971 56.5609C-186.14 55.0609 -195.378 53.0609 -198.98 57.0609C-202.582 61.0609 -206.15 58.3942 -207.484 56.5609C-208.685 57.7609 -228.328 59.0609 -238 59.5609L-238 73.5609C-235.499 75.0609 -207.484 69.5609 -206.484 71.0609C-205.683 72.2609 -204.149 72.8942 -203.482 73.0609C-201.815 71.8942 -197.679 69.3609 -194.478 68.5609C-190.475 67.5609 -185.473 68.5609 -182.972 70.0609C-180.47 71.5609 -162.461 70.0609 -160.96 68.5609C-159.459 67.0609 -162.461 65.0609 -164.462 60.5609C-166.463 56.0609 -164.962 60.0609 -165.963 58.5609Z" fill="white"/>
</g>
<defs>
<filter id="filter0_d_50_1082" x="-253" y="0.00012207" width="1950" height="109.955" filterUnits="userSpaceOnUse" color-interpolation-filters="sRGB">
<feFlood flood-opacity="0" result="BackgroundImageFix"/>
<feColorMatrix in="SourceAlpha" type="matrix" values="0 0 0 0 0 0 0 0 0 0 0 0 0 0 0 0 0 0 127 0" result="hardAlpha"/>
<feOffset dy="10"/>
<feGaussianBlur stdDeviation="7.5"/>
<feComposite in2="hardAlpha" operator="out"/>
<feColorMatrix type="matrix" values="0 0 0 0 0 0 0 0 0 0 0 0 0 0 0 0 0 0 0.1 0"/>
<feBlend mode="normal" in2="BackgroundImageFix" result="effect1_dropShadow_50_1082"/>
<feBlend mode="normal" in="SourceGraphic" in2="effect1_dropShadow_50_1082" result="shape"/>
</filter>
</defs>
</svg>
